<?xml version="1.0" encoding="UTF-8"?>
<svg id="Gv2" xmlns="http://www.w3.org/2000/svg" viewBox="0 0 738.51 661.49">
  <defs>
    <style>
      .cls-1 {
        font-family: SpaceAge, 'Space Age';
        font-size: 95.49px;
      }

      .cls-1, .cls-2 {
        fill: #fff;
      }

      .cls-2 {
        stroke-width: 0px;
      }
    </style>
  </defs>
  <g id="Capa_1" data-name="Capa 1">
    <path id="_Trazado_" data-name="&amp;lt;Trazado&amp;gt;" class="cls-2" d="M244.6,374.88c-18.96,18.09-49.1,17.39-67.19-1.57l-14.84-15.55,4.71-4.49,14.88,15.51-.04.04c15.61,16.34,41.63,16.96,57.98,1.35s16.97-41.62,1.35-57.98c-15.61-16.36-41.62-16.96-57.98-1.35-16.36,15.61-28.12,26.84-34.37,32.82l-4.38-4.59c5.62-5.36,15.3-14.84,34.26-32.93,18.95-18.09,49.1-17.39,67.19,1.57,18.09,18.96,17.39,49.1-1.57,67.18Z"/>
    <path class="cls-2" d="M238.63,368.63c-15.45,14.75-39.99,14.23-54.81-1.12-.06-.05-.11-.11-.17-.17l-14.84-15.55,4.67-4.46,14.84,15.55.04-.04c12.32,12.91,32.85,13.39,45.76,1.07,12.91-12.32,13.39-32.85,1.07-45.76-12.32-12.91-32.85-13.39-45.76-1.07-12.91,12.32-30.9,29.6-34.32,32.87l-4.55-4.77,34.38-32.81c15.51-14.8,40.17-14.22,54.97,1.28,14.8,15.51,14.22,40.17-1.28,54.97Z"/>
    <path class="cls-2" d="M183.82,367.51h0s-.16-.17-.16-.17c.05.06.11.11.17.17Z"/>
    <path class="cls-2" d="M232.64,362.33c-12.02,11.47-31.11,11.05-42.62-.9h-.01s-14.92-15.62-14.92-15.62l4.72-4.51,14.92,15.63c9.03,9.36,23.99,9.68,33.41.69,9.45-9.02,9.8-24.05.78-33.5s-24.05-9.8-33.5-.78c-9.45,9.02-29.67,28.49-34.29,32.9l-4.59-4.81,34.38-32.81c12.05-11.5,31.21-11.05,42.71,1,11.5,12.05,11.05,31.21-1,42.71Z"/>
    <path class="cls-2" d="M278.71,342l-4.72,4.5-13.37-14.01c-.29-1.79-1.05-7.32-4.54-14.21l6.3,6.6,16.33,17.11Z"/>
    <path class="cls-2" d="M272.52,347.9l-4.79,4.57-6.71-6.97c.29-1.69.4-6.2.24-7.53l-.19-2.07,11.45,12Z"/>
  </g>
  <text class="cls-1" transform="translate(299.58 372.14)"><tspan x="0" y="0">GRaIL</tspan></text>
</svg>