<?xml version="1.0" encoding="UTF-8"?>
<svg id="Gv2" xmlns="http://www.w3.org/2000/svg" viewBox="0 0 738.51 661.49">
  <defs>
    <style>
      .cls-1 {
        font-family: SpaceAge, 'Space Age';
        font-size: 120px;
      }

      .cls-1, .cls-2 {
        fill: #0b81af;
      }

      .cls-2 {
        stroke-width: 0px;
      }
    </style>
  </defs>
  <g id="Capa_1" data-name="Capa 1">
    <path id="_Trazado_" data-name="&amp;lt;Trazado&amp;gt;" class="cls-2" d="M456.89,409.44c-40.51,38.66-104.9,37.15-143.56-3.35l-31.71-33.23,10.05-9.59,31.8,33.15-.09.08c33.35,34.92,88.94,36.24,123.89,2.89,34.95-33.35,36.25-88.92,2.89-123.88-33.36-34.95-88.93-36.25-123.88-2.89-34.95,33.36-60.07,57.36-73.44,70.11l-9.37-9.82c12-11.45,32.69-31.71,73.2-70.37,40.5-38.65,104.9-37.15,143.56,3.35,38.66,40.51,37.15,104.9-3.35,143.55Z"/>
    <path class="cls-2" d="M444.15,396.08c-33.02,31.51-85.45,30.4-117.1-2.39-.12-.12-.24-.23-.35-.36l-31.71-33.23,9.97-9.52,31.71,33.23.09-.09c26.33,27.59,70.19,28.62,97.78,2.28,27.59-26.33,28.61-70.19,2.28-97.78-26.33-27.59-70.19-28.61-97.78-2.28-27.59,26.33-66.02,63.24-73.34,70.22l-9.73-10.19,73.45-70.1c33.14-31.62,85.83-30.39,117.46,2.74,31.62,33.14,30.39,85.83-2.74,117.46Z"/>
    <path class="cls-2" d="M327.05,393.7h0s-.35-.36-.35-.36c.12.12.23.24.35.36Z"/>
    <path class="cls-2" d="M431.34,382.62c-25.68,24.51-66.47,23.62-91.06-1.93l-.02.02-31.87-33.4,10.09-9.63,31.87,33.4c19.29,20,51.26,20.68,71.39,1.47,20.19-19.27,20.95-51.38,1.67-71.58s-51.38-20.95-71.58-1.67c-20.19,19.27-63.39,60.88-73.26,70.3l-9.8-10.27,73.45-70.1c25.75-24.57,66.69-23.61,91.26,2.13,24.57,25.75,23.61,66.69-2.13,91.26Z"/>
    <path class="cls-2" d="M529.78,339.18l-10.08,9.62-28.57-29.94c-.61-3.83-2.25-15.64-9.7-30.35l13.46,14.11,34.89,36.56Z"/>
    <path class="cls-2" d="M516.56,351.79l-10.24,9.77-14.34-14.9c.63-3.62.86-13.26.52-16.08l-.41-4.43,24.47,25.64Z"/>
  </g>
  <text class="cls-1" transform="translate(165.18 530.3)"><tspan x="0" y="0">GRaIL</tspan></text>
</svg>